# xmcd CD database file
#
# Track frame offsets:
#	182
#	18112
#	46635
#	66095
#	89147
#	121907
#	147710
#	178217
#	207280
#	230777
#	249080
#	267367
#
# Disc length: 3897 seconds
#
# Revision: 2
# Processed by: cddbd v1.5.2PL0 Copyright (c) Steve Scherf et al.
# Submitted via: CDex 1.51
#
DISCID=ac0f370c
DTITLE=Chet Baker and Art Pepper - Vol. 246 - The Art of Chet Baker and Art Pepper 1956
DYEAR=1956
DGENRE=Jazz
TTITLE0=Sonny Boy
TTITLE1=Tynan Time
TTITLE2=Little Girl
TTITLE3=The Route
TTITLE4=Minor Yours
TTITLE5=Resonant Emotions
TTITLE6=Picture of Health
TTITLE7=For Miles and Miles
TTITLE8=C.T.A.
TTITLE9=For Minors Only
TTITLE10=Tenderly
TTITLE11=Tynan Time (alternate take)
EXTD=YEAR: 1956
EXTT0=
EXTT1=
EXTT2=
EXTT3=
EXTT4=
EXTT5=
EXTT6=
EXTT7=
EXTT8=
EXTT9=
EXTT10=
EXTT11=
PLAYORDER=
